<?xml version="1.0" encoding="utf-8"?>
<!-- Generator: Adobe Illustrator 16.0.4, SVG Export Plug-In . SVG Version: 6.00 Build 0)  -->
<!DOCTYPE svg PUBLIC "-//W3C//DTD SVG 1.1//EN" "http://www.w3.org/Graphics/SVG/1.1/DTD/svg11.dtd">
<svg version="1.1" xmlns="http://www.w3.org/2000/svg" xmlns:xlink="http://www.w3.org/1999/xlink" x="0px" y="0px" width="40px"
	 height="40px" viewBox="0 0 40 40" enable-background="new 0 0 40 40" xml:space="preserve">
<g id="Layer_2">
	<rect fill="none" width="40" height="40"/>
</g>
<g id="Layer_1">
	<path fill="#FFFFFF" d="M23.742,13.932c-2.35-3.328-6.533-5.12-10.769-4.219c-5.675,1.206-9.298,6.784-8.091,12.459
		c1.206,5.674,6.784,9.297,12.459,8.09c3.296-0.7,5.897-2.877,7.266-5.691l-9.45-4.583L23.742,13.932z M15.181,12.724
		c0.793-0.168,1.574,0.338,1.743,1.132c0.169,0.793-0.338,1.574-1.132,1.743c-0.794,0.168-1.575-0.338-1.743-1.132
		C13.879,13.673,14.387,12.893,15.181,12.724z M35.994,24.494c0,2.209-1.791,4-4,4s-4-1.791-4-4s1.791-4,4-4
		S35.994,22.285,35.994,24.494z M35.994,24.994h-8v-4.5h8V24.994z M28.661,19.734c-0.316,0-0.574-0.257-0.574-0.574v-5.333
		c0-0.317,0.258-0.574,0.574-0.574s0.574,0.257,0.574,0.574v5.333C29.235,19.477,28.978,19.734,28.661,19.734z M30.883,19.802
		c-0.354,0-0.642-0.287-0.642-0.642v-6.667c0-0.354,0.287-0.642,0.642-0.642s0.642,0.287,0.642,0.642v6.667
		C31.524,19.515,31.237,19.802,30.883,19.802z M33.105,19.734c-0.316,0-0.574-0.257-0.574-0.574v-5.333
		c0-0.317,0.258-0.574,0.574-0.574s0.574,0.257,0.574,0.574v5.333C33.68,19.477,33.422,19.734,33.105,19.734z M35.328,19.657
		c-0.274,0-0.497-0.223-0.497-0.497v-4c0-0.274,0.223-0.497,0.497-0.497s0.497,0.223,0.497,0.497v4
		C35.825,19.435,35.603,19.657,35.328,19.657z M26.661,24.299c-0.261,0-0.472-0.211-0.472-0.472v-4c0-0.26,0.211-0.471,0.472-0.471
		s0.472,0.211,0.472,0.471v4C27.133,24.088,26.922,24.299,26.661,24.299z"/>
</g>
</svg>
