<?xml version="1.0" encoding="utf-8"?>
<!-- Generator: Adobe Illustrator 16.0.4, SVG Export Plug-In . SVG Version: 6.00 Build 0)  -->
<!DOCTYPE svg PUBLIC "-//W3C//DTD SVG 1.1//EN" "http://www.w3.org/Graphics/SVG/1.1/DTD/svg11.dtd">
<svg version="1.1" id="Layer_1" xmlns="http://www.w3.org/2000/svg" xmlns:xlink="http://www.w3.org/1999/xlink" x="0px" y="0px"
	 width="40px" height="40px" viewBox="0 0 40 40" enable-background="new 0 0 40 40" xml:space="preserve">
<path fill="#82368C" d="M21.48,17.891c0-1.639-1.328-2.967-2.965-2.967c-1.639,0-1.908,1.328-1.908,2.966
	c0,1.638,0.269,2.966,1.908,2.966C20.152,20.856,21.48,19.528,21.48,17.891z"/>
<g>
	<path fill="none" stroke="#82368C" stroke-width="1.5013" stroke-linecap="round" stroke-miterlimit="10" d="M12.246,18.938
		c0,0-1.958-3.614-2.245-4.939C8.831,8.602,14.478,4,20,4c5.521,0,11.168,4.602,9.999,9.999c-0.437,2.015-3.413,7.51-3.413,7.51
		L20,36l-3.089-6.797"/>
</g>
<g>
	<path fill="none" stroke="#662483" stroke-width="1.5013" stroke-linecap="round" stroke-miterlimit="10" d="M23.292,16.467
		c0,0,0.979-1.807,1.123-2.47c0.586-2.7-1.655-4.964-4.416-4.964c-2.761,0-4.939,2.272-4.355,4.971
		c0.219,1.008,0.993,2.16,1.334,3.133c0.658,1.877,1.032,7.552,3.021,7.552c0.934,0,1.962-4.183,1.962-4.183"/>
</g>
</svg>
