<?xml version="1.0" encoding="utf-8"?>
<!-- Generator: Adobe Illustrator 16.0.4, SVG Export Plug-In . SVG Version: 6.00 Build 0)  -->
<!DOCTYPE svg PUBLIC "-//W3C//DTD SVG 1.1//EN" "http://www.w3.org/Graphics/SVG/1.1/DTD/svg11.dtd">
<svg version="1.1" id="Layer_1" xmlns="http://www.w3.org/2000/svg" xmlns:xlink="http://www.w3.org/1999/xlink" x="0px" y="0px"
	 width="40px" height="40px" viewBox="0 0 40 40" enable-background="new 0 0 40 40" xml:space="preserve">
<path fill="#868686" d="M26.354,6.562c0.303,1.201,0.332,1.301,0.306,2.53c-0.013,0.478-0.29,2.679-0.216,3.35
	c0.062,0.556,0.203,0.6,0.426,1.058c0.391,0.796,0.261,1.898,0.11,2.702c-0.078,0.438-0.252,1.067-0.518,1.426
	c-0.286,0.397-0.864,0.401-1.122,0.861c-0.368,0.666-0.161,1.601-0.391,2.316c-0.268,0.814-0.936,0.872-0.987,1.938
	c0.329,0.046,0.658,0.093,0.987,0.139c0.329,0.69,0.93,2.074,1.549,2.487c0.517,0.143,1.033,0.277,1.549,0.416
	c1.814,0.729,3.821,1.602,5.638,2.355c1.652,0.686,3.631,0.927,4.228,2.632c0,1.151,0.112,3.881,0.081,5.395H2.006
	c-0.033-1.514,0.081-4.243,0.081-5.395c0.593-1.705,2.572-1.946,4.228-2.632c1.813-0.754,3.824-1.626,5.637-2.355
	c0.513-0.139,1.03-0.273,1.549-0.416c0.613-0.413,1.216-1.797,1.549-2.487l0.733-0.174c-0.165-0.911-0.739-0.984-0.978-1.626
	c-0.093-0.969-0.188-1.937-0.281-2.906c0.003,0.046-0.675-0.125-0.764-0.178c-0.956-0.59-0.975-2.981-1.069-3.972
	c-0.042-0.456,0.6-0.832,0.423-1.661c-1.049-4.887,0.452-7.168,2.827-7.924c1.649-0.657,4.728-1.874,7.6-0.141l0.713,0.652
	l1.152,0.193C25.982,5.47,26.354,6.562,26.354,6.562"/>
</svg>
